<svg xmlns="http://www.w3.org/2000/svg" xmlns:xlink="http://www.w3.org/1999/xlink" xmlns:lucid="lucid" width="886.46" height="820"><g transform="translate(-73.5357765295829 -140)" lucid:page-tab-id="0_0"><path d="M0 0h1870.87v1322.83H0z" fill="#fff"/><path d="M120 166a6 6 0 0 1 6-6h308a6 6 0 0 1 6 6v48a6 6 0 0 1-6 6H126a6 6 0 0 1-6-6z" stroke="#ffe342" fill="url(#a)"/><use xlink:href="#b" transform="matrix(1,0,0,1,127.99999999999994,168) translate(43.512345679012356 17.77777777777778)"/><use xlink:href="#c" transform="matrix(1,0,0,1,127.99999999999994,168) translate(102.70987654320989 17.77777777777778)"/><use xlink:href="#d" transform="matrix(1,0,0,1,127.99999999999994,168) translate(180.42592592592592 17.77777777777778)"/><path d="M100 366a6 6 0 0 1 6-6h348a6 6 0 0 1 6 6v568a6 6 0 0 1-6 6H106a6 6 0 0 1-6-6z" stroke="#ffe342" fill="url(#e)"/><use xlink:href="#f" transform="matrix(1,0,0,1,108,368) translate(99.9320987654321 17.77777777777778)"/><path d="M540 366a6 6 0 0 1 6-6h388a6 6 0 0 1 6 6v568a6 6 0 0 1-6 6H546a6 6 0 0 1-6-6z" stroke="#ffe342" fill="url(#g)"/><use xlink:href="#h" transform="matrix(1,0,0,1,548,368) translate(115.58024691358025 17.77777777777778)"/><path d="M580 466a6 6 0 0 1 6-6h268a6 6 0 0 1 6 6v28a6 6 0 0 1-6 6H586a6 6 0 0 1-6-6z" stroke="#ffe342" fill="url(#i)"/><use xlink:href="#j" transform="matrix(1,0,0,1,588,468) translate(80.24074074074073 17.77777777777778)"/><use xlink:href="#k" transform="matrix(1,0,0,1,588,468) translate(157.89506172839504 17.77777777777778)"/><use xlink:href="#l" transform="matrix(1,0,0,1,588,468) translate(171.41358024691357 17.77777777777778)"/><path d="M580 826a6 6 0 0 1 6-6h268a6 6 0 0 1 6 6v28a6 6 0 0 1-6 6H586a6 6 0 0 1-6-6z" stroke="#ffe342" fill="url(#m)"/><use xlink:href="#n" transform="matrix(1,0,0,1,588,828) translate(86.38271604938271 17.77777777777778)"/><path d="M580 734.1a6 6 0 0 1 6-6h268a6 6 0 0 1 6 6v28a6 6 0 0 1-6 6H586a6 6 0 0 1-6-6z" stroke="#ffe342" fill="url(#o)"/><use xlink:href="#p" transform="matrix(1,0,0,1,588,736.0946006247223) translate(50.611111111111114 17.77777777777778)"/><use xlink:href="#q" transform="matrix(1,0,0,1,588,736.0946006247223) translate(146.72222222222223 17.77777777777778)"/><path d="M580 523.2a6 6 0 0 1 6-6h268a6 6 0 0 1 6 6v25.18a6 6 0 0 1-6 6H586a6 6 0 0 1-6-6z" stroke="#ffe342" fill="url(#r)"/><use xlink:href="#j" transform="matrix(1,0,0,1,588,525.1905399375278) translate(80.24074074074073 17.77777777777778)"/><use xlink:href="#k" transform="matrix(1,0,0,1,588,525.1905399375278) translate(157.89506172839504 17.77777777777778)"/><use xlink:href="#s" transform="matrix(1,0,0,1,588,525.1905399375278) translate(171.41358024691357 17.77777777777778)"/><path d="M580 577.35a6 6 0 0 1 6-6h268a6 6 0 0 1 6 6v33.84a6 6 0 0 1-6 6H586a6 6 0 0 1-6-6z" stroke="#ffe342" fill="url(#t)"/><use xlink:href="#u" transform="matrix(1,0,0,1,588,579.3485051316377) translate(119.65432098765432 17.77777777777778)"/><path d="M120 523.2a6 6 0 0 1 6-6h308a6 6 0 0 1 6 6v28a6 6 0 0 1-6 6H126a6 6 0 0 1-6-6z" stroke="#ffe342" fill="url(#v)"/><use xlink:href="#w" transform="matrix(1,0,0,1,128,525.1905399375278) translate(58.29629629629629 17.77777777777778)"/><use xlink:href="#x" transform="matrix(1,0,0,1,128,525.1905399375278) translate(159.4074074074074 17.77777777777778)"/><path d="M120 666a6 6 0 0 1 6-6h308a6 6 0 0 1 6 6v28a6 6 0 0 1-6 6H126a6 6 0 0 1-6-6z" stroke="#ffe342" fill="url(#y)"/><use xlink:href="#z" transform="matrix(1,0,0,1,128,668) translate(53.358024691358025 17.77777777777778)"/><use xlink:href="#x" transform="matrix(1,0,0,1,128,668) translate(164.34567901234567 17.77777777777778)"/><path d="M120 866a6 6 0 0 1 6-6h308a6 6 0 0 1 6 6v28a6 6 0 0 1-6 6H126a6 6 0 0 1-6-6z" stroke="#ffe342" fill="url(#A)"/><use xlink:href="#B" transform="matrix(1,0,0,1,128,868) translate(43.91358024691358 17.77777777777778)"/><use xlink:href="#C" transform="matrix(1,0,0,1,128,868) translate(140.45679012345678 17.77777777777778)"/><path d="M120 446a6 6 0 0 1 6-6h308a6 6 0 0 1 6 6v28a6 6 0 0 1-6 6H126a6 6 0 0 1-6-6z" stroke="#ffe342" fill="url(#D)"/><use xlink:href="#E" transform="matrix(1,0,0,1,127.99999999999994,448) translate(83.57407407407408 17.77777777777778)"/><use xlink:href="#F" transform="matrix(1,0,0,1,127.99999999999994,448) translate(136.59876543209876 17.77777777777778)"/><path d="M440.96 190h453.5a6 6 0 0 1 6 6v278a6 6 0 0 1-6 6h-17.6" stroke="#ffe342" fill="none"/><path d="M440.98 190.5h-.52v-1h.52z" stroke="#ffe342" stroke-width=".05" fill="#ffe342"/><path d="M862.08 480l14.27-4.64v9.28z" stroke="#ffe342" fill="#ffe342"/><path d="M440.96 190h453.5a6 6 0 0 1 6 6v546.1a6 6 0 0 1-6 6h-17.6" stroke="#ffe342" fill="none"/><path d="M440.98 190.5h-.52v-1h.52z" stroke="#ffe342" stroke-width=".05" fill="#ffe342"/><path d="M862.08 748.1l14.27-4.64v9.27z" stroke="#ffe342" fill="#ffe342"/><path d="M440.96 190h453.5a6 6 0 0 1 6 6v638a6 6 0 0 1-6 6h-17.6" stroke="#ffe342" fill="none"/><path d="M440.98 190.5h-.52v-1h.52z" stroke="#ffe342" stroke-width=".05" fill="#ffe342"/><path d="M862.08 840l14.27-4.64v9.28z" stroke="#ffe342" fill="#ffe342"/><path d="M440.96 190h453.5a6 6 0 0 1 6 6v392.27a6 6 0 0 1-6 6h-17.6" stroke="#ffe342" fill="none"/><path d="M440.98 190.5h-.52v-1h.52z" stroke="#ffe342" stroke-width=".05" fill="#ffe342"/><path d="M862.08 594.27l14.27-4.64v9.27z" stroke="#ffe342" fill="#ffe342"/><path d="M189.84 359.06v-69.03l.02-.02v-53.13" stroke="#ffe342" fill="none"/><path d="M190.34 359.56h-1v-.52h1z" stroke="#ffe342" stroke-width=".05" fill="#ffe342"/><path d="M189.86 222.1l4.63 14.27h-9.28z" stroke="#ffe342" fill="#ffe342"/><path d="M369.23 220.94v122.2" stroke="#ffe342" fill="none"/><path d="M369.73 220.95h-1v-.5h1z" stroke="#ffe342" stroke-width=".05" fill="#ffe342"/><path d="M369.23 357.9l-4.64-14.27h9.26z" stroke="#ffe342" fill="#ffe342"/><path d="M440.96 190h453.5a6 6 0 0 1 6 6v333.8a6 6 0 0 1-6 6h-17.6" stroke="#ffe342" fill="none"/><path d="M440.98 190.5h-.52v-1h.52z" stroke="#ffe342" stroke-width=".05" fill="#ffe342"/><path d="M862.08 535.8l14.27-4.65v9.27z" stroke="#ffe342" fill="#ffe342"/><path d="M440.96 537.2H504a6 6 0 0 0 6-6V484.1a6 6 0 0 1 6-6h47.15" stroke="#ffe342" fill="none"/><path d="M440.98 537.7h-.5l-.02-1h.52z" stroke="#ffe342" stroke-width=".05" fill="#ffe342"/><path d="M577.9 478.12l-14.25 4.64v-9.27z" stroke="#ffe342" fill="#ffe342"/><path d="M440.96 537.2h122.66" stroke="#ffe342" fill="none"/><path d="M440.98 537.7h-.5l-.02-1h.52z" stroke="#ffe342" stroke-width=".05" fill="#ffe342"/><path d="M578.38 537.2l-14.26 4.63v-9.27z" stroke="#ffe342" fill="#ffe342"/><path d="M440.96 537.2H504a6 6 0 0 1 6 6v47.07a6 6 0 0 0 6 6h47.16" stroke="#ffe342" fill="none"/><path d="M440.98 537.7h-.5l-.02-1h.52z" stroke="#ffe342" stroke-width=".05" fill="#ffe342"/><path d="M577.92 596.27l-14.26 4.63v-9.27z" stroke="#ffe342" fill="#ffe342"/><path d="M720 618.15v14.45a6 6 0 0 1-6 6H284.56a4.56 4.56 0 0 0-4.56 4.55" stroke="#ffe342" fill="none"/><path d="M720.5 618.17h-1v-.52h1z" stroke="#ffe342" stroke-width=".05" fill="#ffe342"/><path d="M280 657.92l-4.64-14.27h9.28z" stroke="#ffe342" fill="#ffe342"/><path d="M440.96 680H714a6 6 0 0 1 6 6v25.25" stroke="#ffe342" fill="none"/><path d="M440.98 680.5h-.5l-.02-1h.52z" stroke="#ffe342" stroke-width=".05" fill="#ffe342"/><path d="M720 726l-4.64-14.25h9.28z" stroke="#ffe342" fill="#ffe342"/><path d="M119.04 880h-33.5a6 6 0 0 1-6-6V466a6 6 0 0 1 6-6h17.6" stroke="#ffe342" fill="none"/><path d="M119.54 880.5h-.52v-1h.5z" stroke="#ffe342" stroke-width=".05" fill="#ffe342"/><path d="M117.92 460l-14.27 4.64v-9.28z" stroke="#ffe342" fill="#ffe342"/><path d="M720 769.06v34.1" stroke="#ffe342" fill="none"/><path d="M720.5 769.07h-1v-.5h1z" stroke="#ffe342" stroke-width=".05" fill="#ffe342"/><path d="M720 817.92l-4.64-14.27h9.28z" stroke="#ffe342" fill="#ffe342"/><path d="M579.04 840h-295.9a3.15 3.15 0 0 0-3.14 3.15" stroke="#ffe342" fill="none"/><path d="M579.54 840.5h-.52v-1h.5z" stroke="#ffe342" stroke-width=".05" fill="#ffe342"/><path d="M280 857.92l-4.64-14.27h9.28z" stroke="#ffe342" fill="#ffe342"/><path d="M280 480.96v19.38" stroke="#ffe342" fill="none"/><path d="M280.5 480.98h-1v-.52h1z" stroke="#ffe342" stroke-width=".05" fill="#ffe342"/><path d="M280 515.1l-4.64-14.26h9.28z" stroke="#ffe342" fill="#ffe342"/><defs><linearGradient gradientUnits="userSpaceOnUse" id="a" x1="120" y1="160" x2="120" y2="220"><stop offset="0%" stop-color="#fff"/><stop offset="20%" stop-color="#fff"/><stop offset="100%" stop-color="#dbdbdb"/></linearGradient><path fill="#3a414a" d="M30 0v-248h33v221h125V0H30" id="G"/><path fill="#3a414a" d="M100-194c62-1 85 37 85 99 1 63-27 99-86 99S16-35 15-95c0-66 28-99 85-99zM99-20c44 1 53-31 53-75 0-43-8-75-51-75s-53 32-53 75 10 74 51 75" id="H"/><path fill="#3a414a" d="M96-169c-40 0-48 33-48 73s9 75 48 75c24 0 41-14 43-38l32 2c-6 37-31 61-74 61-59 0-76-41-82-99-10-93 101-131 147-64 4 7 5 14 7 22l-32 3c-4-21-16-35-41-35" id="I"/><path fill="#3a414a" d="M141-36C126-15 110 5 73 4 37 3 15-17 15-53c-1-64 63-63 125-63 3-35-9-54-41-54-24 1-41 7-42 31l-33-3c5-37 33-52 76-52 45 0 72 20 72 64v82c-1 20 7 32 28 27v20c-31 9-61-2-59-35zM48-53c0 20 12 33 32 33 41-3 63-29 60-74-43 2-92-5-92 41" id="J"/><path fill="#3a414a" d="M24 0v-261h32V0H24" id="K"/><g id="b"><use transform="matrix(0.06172839506172839,0,0,0.06172839506172839,0,0)" xlink:href="#G"/><use transform="matrix(0.06172839506172839,0,0,0.06172839506172839,12.345679012345679,0)" xlink:href="#H"/><use transform="matrix(0.06172839506172839,0,0,0.06172839506172839,24.691358024691358,0)" xlink:href="#I"/><use transform="matrix(0.06172839506172839,0,0,0.06172839506172839,35.80246913580247,0)" xlink:href="#J"/><use transform="matrix(0.06172839506172839,0,0,0.06172839506172839,48.148148148148145,0)" xlink:href="#K"/></g><path fill="#3a414a" d="M185-189c-5-48-123-54-124 2 14 75 158 14 163 119 3 78-121 87-175 55-17-10-28-26-33-46l33-7c5 56 141 63 141-1 0-78-155-14-162-118-5-82 145-84 179-34 5 7 8 16 11 25" id="L"/><path fill="#3a414a" d="M106-169C34-169 62-67 57 0H25v-261h32l-1 103c12-21 28-36 61-36 89 0 53 116 60 194h-32v-121c2-32-8-49-39-48" id="M"/><path fill="#3a414a" d="M114-163C36-179 61-72 57 0H25l-1-190h30c1 12-1 29 2 39 6-27 23-49 58-41v29" id="N"/><path fill="#3a414a" d="M100-194c63 0 86 42 84 106H49c0 40 14 67 53 68 26 1 43-12 49-29l28 8c-11 28-37 45-77 45C44 4 14-33 15-96c1-61 26-98 85-98zm52 81c6-60-76-77-97-28-3 7-6 17-6 28h103" id="O"/><path fill="#3a414a" d="M85-194c31 0 48 13 60 33l-1-100h32l1 261h-30c-2-10 0-23-3-31C134-8 116 4 85 4 32 4 16-35 15-94c0-66 23-100 70-100zm9 24c-40 0-46 34-46 75 0 40 6 74 45 74 42 0 51-32 51-76 0-42-9-74-50-73" id="P"/><g id="c"><use transform="matrix(0.06172839506172839,0,0,0.06172839506172839,0,0)" xlink:href="#L"/><use transform="matrix(0.06172839506172839,0,0,0.06172839506172839,14.814814814814813,0)" xlink:href="#M"/><use transform="matrix(0.06172839506172839,0,0,0.06172839506172839,27.160493827160494,0)" xlink:href="#J"/><use transform="matrix(0.06172839506172839,0,0,0.06172839506172839,39.50617283950617,0)" xlink:href="#N"/><use transform="matrix(0.06172839506172839,0,0,0.06172839506172839,46.85185185185185,0)" xlink:href="#O"/><use transform="matrix(0.06172839506172839,0,0,0.06172839506172839,59.197530864197525,0)" xlink:href="#P"/></g><path fill="#3a414a" d="M240 0l2-218c-23 76-54 145-80 218h-23L58-218 59 0H30v-248h44l77 211c21-75 51-140 76-211h43V0h-30" id="Q"/><path fill="#3a414a" d="M210-169c-67 3-38 105-44 169h-31v-121c0-29-5-50-35-48C34-165 62-65 56 0H25l-1-190h30c1 10-1 24 2 32 10-44 99-50 107 0 11-21 27-35 58-36 85-2 47 119 55 194h-31v-121c0-29-5-49-35-48" id="R"/><path fill="#3a414a" d="M179-190L93 31C79 59 56 82 12 73V49c39 6 53-20 64-50L1-190h34L92-34l54-156h33" id="S"/><g id="d"><use transform="matrix(0.06172839506172839,0,0,0.06172839506172839,0,0)" xlink:href="#Q"/><use transform="matrix(0.06172839506172839,0,0,0.06172839506172839,18.456790123456788,0)" xlink:href="#O"/><use transform="matrix(0.06172839506172839,0,0,0.06172839506172839,30.80246913580247,0)" xlink:href="#R"/><use transform="matrix(0.06172839506172839,0,0,0.06172839506172839,49.25925925925925,0)" xlink:href="#H"/><use transform="matrix(0.06172839506172839,0,0,0.06172839506172839,61.60493827160493,0)" xlink:href="#N"/><use transform="matrix(0.06172839506172839,0,0,0.06172839506172839,68.9506172839506,0)" xlink:href="#S"/></g><linearGradient gradientUnits="userSpaceOnUse" id="e" x1="100" y1="360" x2="100" y2="940"><stop offset="0%" stop-color="#fff"/><stop offset="20%" stop-color="#fff"/><stop offset="100%" stop-color="#dbdbdb"/></linearGradient><path fill="#3a414a" d="M24-231v-30h32v30H24zM24 0v-190h32V0H24" id="T"/><path fill="#3a414a" d="M30-248c118-7 216 8 213 122C240-48 200 0 122 0H30v-248zM63-27c89 8 146-16 146-99s-60-101-146-95v194" id="U"/><path fill="#3a414a" d="M135-143c-3-34-86-38-87 0 15 53 115 12 119 90S17 21 10-45l28-5c4 36 97 45 98 0-10-56-113-15-118-90-4-57 82-63 122-42 12 7 21 19 24 35" id="V"/><path fill="#3a414a" d="M115-194c55 1 70 41 70 98S169 2 115 4C84 4 66-9 55-30l1 105H24l-1-265h31l2 30c10-21 28-34 59-34zm-8 174c40 0 45-34 45-75s-6-73-45-74c-42 0-51 32-51 76 0 43 10 73 51 73" id="W"/><path fill="#3a414a" d="M59-47c-2 24 18 29 38 22v24C64 9 27 4 27-40v-127H5v-23h24l9-43h21v43h35v23H59v120" id="X"/><g id="f"><use transform="matrix(0.06172839506172839,0,0,0.06172839506172839,0,0)" xlink:href="#L"/><use transform="matrix(0.06172839506172839,0,0,0.06172839506172839,14.814814814814813,0)" xlink:href="#T"/><use transform="matrix(0.06172839506172839,0,0,0.06172839506172839,19.691358024691354,0)" xlink:href="#R"/><use transform="matrix(0.06172839506172839,0,0,0.06172839506172839,38.14814814814814,0)" xlink:href="#U"/><use transform="matrix(0.06172839506172839,0,0,0.06172839506172839,54.13580246913579,0)" xlink:href="#T"/><use transform="matrix(0.06172839506172839,0,0,0.06172839506172839,59.012345679012334,0)" xlink:href="#V"/><use transform="matrix(0.06172839506172839,0,0,0.06172839506172839,70.12345679012344,0)" xlink:href="#W"/><use transform="matrix(0.06172839506172839,0,0,0.06172839506172839,82.46913580246913,0)" xlink:href="#J"/><use transform="matrix(0.06172839506172839,0,0,0.06172839506172839,94.81481481481481,0)" xlink:href="#X"/><use transform="matrix(0.06172839506172839,0,0,0.06172839506172839,100.98765432098764,0)" xlink:href="#I"/><use transform="matrix(0.06172839506172839,0,0,0.06172839506172839,112.09876543209876,0)" xlink:href="#M"/><use transform="matrix(0.06172839506172839,0,0,0.06172839506172839,124.44444444444444,0)" xlink:href="#O"/><use transform="matrix(0.06172839506172839,0,0,0.06172839506172839,136.79012345679013,0)" xlink:href="#N"/></g><linearGradient gradientUnits="userSpaceOnUse" id="g" x1="540" y1="360" x2="540" y2="940"><stop offset="0%" stop-color="#fff"/><stop offset="20%" stop-color="#fff"/><stop offset="100%" stop-color="#dbdbdb"/></linearGradient><path fill="#3a414a" d="M212-179c-10-28-35-45-73-45-59 0-87 40-87 99 0 60 29 101 89 101 43 0 62-24 78-52l27 14C228-24 195 4 139 4 59 4 22-46 18-125c-6-104 99-153 187-111 19 9 31 26 39 46" id="Y"/><path fill="#3a414a" d="M117-194c89-4 53 116 60 194h-32v-121c0-31-8-49-39-48C34-167 62-67 57 0H25l-1-190h30c1 10-1 24 2 32 11-22 29-35 61-36" id="Z"/><g id="h"><use transform="matrix(0.06172839506172839,0,0,0.06172839506172839,0,0)" xlink:href="#L"/><use transform="matrix(0.06172839506172839,0,0,0.06172839506172839,14.814814814814813,0)" xlink:href="#T"/><use transform="matrix(0.06172839506172839,0,0,0.06172839506172839,19.691358024691354,0)" xlink:href="#R"/><use transform="matrix(0.06172839506172839,0,0,0.06172839506172839,38.14814814814814,0)" xlink:href="#Y"/><use transform="matrix(0.06172839506172839,0,0,0.06172839506172839,54.13580246913579,0)" xlink:href="#H"/><use transform="matrix(0.06172839506172839,0,0,0.06172839506172839,66.48148148148147,0)" xlink:href="#R"/><use transform="matrix(0.06172839506172839,0,0,0.06172839506172839,84.93827160493825,0)" xlink:href="#W"/><use transform="matrix(0.06172839506172839,0,0,0.06172839506172839,97.28395061728394,0)" xlink:href="#H"/><use transform="matrix(0.06172839506172839,0,0,0.06172839506172839,109.62962962962962,0)" xlink:href="#Z"/><use transform="matrix(0.06172839506172839,0,0,0.06172839506172839,121.9753086419753,0)" xlink:href="#O"/><use transform="matrix(0.06172839506172839,0,0,0.06172839506172839,134.320987654321,0)" xlink:href="#Z"/><use transform="matrix(0.06172839506172839,0,0,0.06172839506172839,146.66666666666666,0)" xlink:href="#X"/></g><linearGradient gradientUnits="userSpaceOnUse" id="i" x1="580" y1="460" x2="580" y2="500"><stop offset="0%" stop-color="#fff"/><stop offset="20%" stop-color="#fff"/><stop offset="100%" stop-color="#dbdbdb"/></linearGradient><path fill="#3a414a" d="M137 0h-34L2-248h35l83 218 83-218h36" id="aa"/><g id="j"><use transform="matrix(0.06172839506172839,0,0,0.06172839506172839,0,0)" xlink:href="#aa"/><use transform="matrix(0.06172839506172839,0,0,0.06172839506172839,13.580246913580245,0)" xlink:href="#O"/><use transform="matrix(0.06172839506172839,0,0,0.06172839506172839,25.925925925925924,0)" xlink:href="#M"/><use transform="matrix(0.06172839506172839,0,0,0.06172839506172839,38.2716049382716,0)" xlink:href="#T"/><use transform="matrix(0.06172839506172839,0,0,0.06172839506172839,43.148148148148145,0)" xlink:href="#I"/><use transform="matrix(0.06172839506172839,0,0,0.06172839506172839,54.25925925925925,0)" xlink:href="#K"/><use transform="matrix(0.06172839506172839,0,0,0.06172839506172839,59.1358024691358,0)" xlink:href="#O"/></g><path fill="#3a414a" d="M16-82v-28h88v28H16" id="ab"/><use transform="matrix(0.06172839506172839,0,0,0.06172839506172839,0,0)" xlink:href="#ab" id="k"/><path fill="#3a414a" d="M27 0v-27h64v-190l-56 39v-29l58-41h29v221h61V0H27" id="ac"/><use transform="matrix(0.06172839506172839,0,0,0.06172839506172839,0,0)" xlink:href="#ac" id="l"/><linearGradient gradientUnits="userSpaceOnUse" id="m" x1="580" y1="820" x2="580" y2="860"><stop offset="0%" stop-color="#fff"/><stop offset="20%" stop-color="#fff"/><stop offset="100%" stop-color="#dbdbdb"/></linearGradient><path fill="#3a414a" d="M140-251c81 0 123 46 123 126C263-46 219 4 140 4 59 4 17-45 17-125s42-126 123-126zm0 227c63 0 89-41 89-101s-29-99-89-99c-61 0-89 39-89 99S79-25 140-24" id="ad"/><path fill="#3a414a" d="M115-194c53 0 69 39 70 98 0 66-23 100-70 100C84 3 66-7 56-30L54 0H23l1-261h32v101c10-23 28-34 59-34zm-8 174c40 0 45-34 45-75 0-40-5-75-45-74-42 0-51 32-51 76 0 43 10 73 51 73" id="ae"/><path fill="#3a414a" d="M108 0H70L1-190h34L89-25l56-165h34" id="af"/><g id="n"><use transform="matrix(0.06172839506172839,0,0,0.06172839506172839,0,0)" xlink:href="#ad"/><use transform="matrix(0.06172839506172839,0,0,0.06172839506172839,17.28395061728395,0)" xlink:href="#ae"/><use transform="matrix(0.06172839506172839,0,0,0.06172839506172839,29.629629629629626,0)" xlink:href="#V"/><use transform="matrix(0.06172839506172839,0,0,0.06172839506172839,40.74074074074073,0)" xlink:href="#O"/><use transform="matrix(0.06172839506172839,0,0,0.06172839506172839,53.08641975308641,0)" xlink:href="#N"/><use transform="matrix(0.06172839506172839,0,0,0.06172839506172839,60.43209876543209,0)" xlink:href="#af"/><use transform="matrix(0.06172839506172839,0,0,0.06172839506172839,71.5432098765432,0)" xlink:href="#O"/><use transform="matrix(0.06172839506172839,0,0,0.06172839506172839,83.88888888888889,0)" xlink:href="#N"/></g><linearGradient gradientUnits="userSpaceOnUse" id="o" x1="580" y1="728.09" x2="580" y2="768.09"><stop offset="0%" stop-color="#fff"/><stop offset="20%" stop-color="#fff"/><stop offset="100%" stop-color="#dbdbdb"/></linearGradient><path fill="#3a414a" d="M177-190C167-65 218 103 67 71c-23-6-38-20-44-43l32-5c15 47 100 32 89-28v-30C133-14 115 1 83 1 29 1 15-40 15-95c0-56 16-97 71-98 29-1 48 16 59 35 1-10 0-23 2-32h30zM94-22c36 0 50-32 50-73 0-42-14-75-50-75-39 0-46 34-46 75s6 73 46 73" id="ag"/><g id="p"><use transform="matrix(0.06172839506172839,0,0,0.06172839506172839,0,0)" xlink:href="#Y"/><use transform="matrix(0.06172839506172839,0,0,0.06172839506172839,15.987654320987653,0)" xlink:href="#M"/><use transform="matrix(0.06172839506172839,0,0,0.06172839506172839,28.333333333333332,0)" xlink:href="#J"/><use transform="matrix(0.06172839506172839,0,0,0.06172839506172839,40.67901234567901,0)" xlink:href="#N"/><use transform="matrix(0.06172839506172839,0,0,0.06172839506172839,48.02469135802469,0)" xlink:href="#ag"/><use transform="matrix(0.06172839506172839,0,0,0.06172839506172839,60.37037037037037,0)" xlink:href="#T"/><use transform="matrix(0.06172839506172839,0,0,0.06172839506172839,65.24691358024691,0)" xlink:href="#Z"/><use transform="matrix(0.06172839506172839,0,0,0.06172839506172839,77.5925925925926,0)" xlink:href="#ag"/></g><path fill="#3a414a" d="M140-251c81 0 123 46 123 126C263-53 228-8 163 1c7 30 30 48 69 40v23c-55 16-95-15-103-61C56-3 17-48 17-125c0-80 42-126 123-126zm0 227c63 0 89-41 89-101s-29-99-89-99c-61 0-89 39-89 99S79-25 140-24" id="ah"/><path fill="#3a414a" d="M84 4C-5 8 30-112 23-190h32v120c0 31 7 50 39 49 72-2 45-101 50-169h31l1 190h-30c-1-10 1-25-2-33-11 22-28 36-60 37" id="ai"/><g id="q"><use transform="matrix(0.06172839506172839,0,0,0.06172839506172839,0,0)" xlink:href="#ah"/><use transform="matrix(0.06172839506172839,0,0,0.06172839506172839,17.28395061728395,0)" xlink:href="#ai"/><use transform="matrix(0.06172839506172839,0,0,0.06172839506172839,29.629629629629626,0)" xlink:href="#O"/><use transform="matrix(0.06172839506172839,0,0,0.06172839506172839,41.9753086419753,0)" xlink:href="#ai"/><use transform="matrix(0.06172839506172839,0,0,0.06172839506172839,54.32098765432098,0)" xlink:href="#O"/></g><linearGradient gradientUnits="userSpaceOnUse" id="r" x1="580" y1="517.19" x2="580" y2="554.38"><stop offset="0%" stop-color="#fff"/><stop offset="20%" stop-color="#fff"/><stop offset="100%" stop-color="#dbdbdb"/></linearGradient><path fill="#3a414a" d="M101-251c82-7 93 87 43 132L82-64C71-53 59-42 53-27h129V0H18c2-99 128-94 128-182 0-28-16-43-45-43s-46 15-49 41l-32-3c6-41 34-60 81-64" id="aj"/><use transform="matrix(0.06172839506172839,0,0,0.06172839506172839,0,0)" xlink:href="#aj" id="s"/><linearGradient gradientUnits="userSpaceOnUse" id="t" x1="580" y1="571.35" x2="580" y2="617.19"><stop offset="0%" stop-color="#fff"/><stop offset="20%" stop-color="#fff"/><stop offset="100%" stop-color="#dbdbdb"/></linearGradient><path fill="#3a414a" d="M33 0v-38h34V0H33" id="ak"/><g id="u"><use transform="matrix(0.06172839506172839,0,0,0.06172839506172839,0,0)" xlink:href="#ak"/><use transform="matrix(0.06172839506172839,0,0,0.06172839506172839,6.172839506172839,0)" xlink:href="#ak"/><use transform="matrix(0.06172839506172839,0,0,0.06172839506172839,12.345679012345679,0)" xlink:href="#ak"/><use transform="matrix(0.06172839506172839,0,0,0.06172839506172839,18.51851851851852,0)" xlink:href="#ak"/></g><linearGradient gradientUnits="userSpaceOnUse" id="v" x1="120" y1="517.19" x2="120" y2="557.19"><stop offset="0%" stop-color="#fff"/><stop offset="20%" stop-color="#fff"/><stop offset="100%" stop-color="#dbdbdb"/></linearGradient><path fill="#3a414a" d="M127-220V0H93v-220H8v-28h204v28h-85" id="al"/><g id="w"><use transform="matrix(0.06172839506172839,0,0,0.06172839506172839,0,0)" xlink:href="#al"/><use transform="matrix(0.06172839506172839,0,0,0.06172839506172839,13.518518518518517,0)" xlink:href="#M"/><use transform="matrix(0.06172839506172839,0,0,0.06172839506172839,25.864197530864196,0)" xlink:href="#N"/><use transform="matrix(0.06172839506172839,0,0,0.06172839506172839,33.20987654320987,0)" xlink:href="#O"/><use transform="matrix(0.06172839506172839,0,0,0.06172839506172839,45.55555555555555,0)" xlink:href="#J"/><use transform="matrix(0.06172839506172839,0,0,0.06172839506172839,57.90123456790123,0)" xlink:href="#P"/><use transform="matrix(0.06172839506172839,0,0,0.06172839506172839,70.24691358024691,0)" xlink:href="#O"/><use transform="matrix(0.06172839506172839,0,0,0.06172839506172839,82.5925925925926,0)" xlink:href="#P"/></g><g id="x"><use transform="matrix(0.06172839506172839,0,0,0.06172839506172839,0,0)" xlink:href="#U"/><use transform="matrix(0.06172839506172839,0,0,0.06172839506172839,15.987654320987653,0)" xlink:href="#T"/><use transform="matrix(0.06172839506172839,0,0,0.06172839506172839,20.864197530864196,0)" xlink:href="#V"/><use transform="matrix(0.06172839506172839,0,0,0.06172839506172839,31.975308641975307,0)" xlink:href="#W"/><use transform="matrix(0.06172839506172839,0,0,0.06172839506172839,44.32098765432099,0)" xlink:href="#J"/><use transform="matrix(0.06172839506172839,0,0,0.06172839506172839,56.666666666666664,0)" xlink:href="#X"/><use transform="matrix(0.06172839506172839,0,0,0.06172839506172839,62.839506172839506,0)" xlink:href="#I"/><use transform="matrix(0.06172839506172839,0,0,0.06172839506172839,73.95061728395062,0)" xlink:href="#M"/></g><linearGradient gradientUnits="userSpaceOnUse" id="y" x1="120" y1="660" x2="120" y2="700"><stop offset="0%" stop-color="#fff"/><stop offset="20%" stop-color="#fff"/><stop offset="100%" stop-color="#dbdbdb"/></linearGradient><path fill="#3a414a" d="M145-31C134-9 116 4 85 4 32 4 16-35 15-94c0-59 17-99 70-100 32-1 48 14 60 33 0-11-1-24 2-32h30l-1 268h-32zM93-21c41 0 51-33 51-76s-8-73-50-73c-40 0-46 35-46 75s5 74 45 74" id="am"/><g id="z"><use transform="matrix(0.06172839506172839,0,0,0.06172839506172839,0,0)" xlink:href="#L"/><use transform="matrix(0.06172839506172839,0,0,0.06172839506172839,14.814814814814813,0)" xlink:href="#O"/><use transform="matrix(0.06172839506172839,0,0,0.06172839506172839,27.160493827160494,0)" xlink:href="#am"/><use transform="matrix(0.06172839506172839,0,0,0.06172839506172839,39.50617283950617,0)" xlink:href="#ai"/><use transform="matrix(0.06172839506172839,0,0,0.06172839506172839,51.85185185185185,0)" xlink:href="#O"/><use transform="matrix(0.06172839506172839,0,0,0.06172839506172839,64.19753086419753,0)" xlink:href="#Z"/><use transform="matrix(0.06172839506172839,0,0,0.06172839506172839,76.54320987654322,0)" xlink:href="#X"/><use transform="matrix(0.06172839506172839,0,0,0.06172839506172839,82.71604938271605,0)" xlink:href="#T"/><use transform="matrix(0.06172839506172839,0,0,0.06172839506172839,87.5925925925926,0)" xlink:href="#J"/><use transform="matrix(0.06172839506172839,0,0,0.06172839506172839,99.93827160493828,0)" xlink:href="#K"/></g><linearGradient gradientUnits="userSpaceOnUse" id="A" x1="120" y1="860" x2="120" y2="900"><stop offset="0%" stop-color="#fff"/><stop offset="20%" stop-color="#fff"/><stop offset="100%" stop-color="#dbdbdb"/></linearGradient><g id="B"><use transform="matrix(0.06172839506172839,0,0,0.06172839506172839,0,0)" xlink:href="#al"/><use transform="matrix(0.06172839506172839,0,0,0.06172839506172839,12.716049382716047,0)" xlink:href="#T"/><use transform="matrix(0.06172839506172839,0,0,0.06172839506172839,17.592592592592588,0)" xlink:href="#R"/><use transform="matrix(0.06172839506172839,0,0,0.06172839506172839,36.04938271604938,0)" xlink:href="#O"/><use transform="matrix(0.06172839506172839,0,0,0.06172839506172839,48.395061728395056,0)" xlink:href="#V"/><use transform="matrix(0.06172839506172839,0,0,0.06172839506172839,59.50617283950616,0)" xlink:href="#X"/><use transform="matrix(0.06172839506172839,0,0,0.06172839506172839,65.679012345679,0)" xlink:href="#O"/><use transform="matrix(0.06172839506172839,0,0,0.06172839506172839,78.02469135802468,0)" xlink:href="#W"/></g><path fill="#3a414a" d="M30-248c87 1 191-15 191 75 0 78-77 80-158 76V0H30v-248zm33 125c57 0 124 11 124-50 0-59-68-47-124-48v98" id="an"/><g id="C"><use transform="matrix(0.06172839506172839,0,0,0.06172839506172839,0,0)" xlink:href="#an"/><use transform="matrix(0.06172839506172839,0,0,0.06172839506172839,14.814814814814813,0)" xlink:href="#N"/><use transform="matrix(0.06172839506172839,0,0,0.06172839506172839,22.160493827160494,0)" xlink:href="#H"/><use transform="matrix(0.06172839506172839,0,0,0.06172839506172839,34.50617283950617,0)" xlink:href="#W"/><use transform="matrix(0.06172839506172839,0,0,0.06172839506172839,46.85185185185185,0)" xlink:href="#J"/><use transform="matrix(0.06172839506172839,0,0,0.06172839506172839,59.197530864197525,0)" xlink:href="#ag"/><use transform="matrix(0.06172839506172839,0,0,0.06172839506172839,71.5432098765432,0)" xlink:href="#J"/><use transform="matrix(0.06172839506172839,0,0,0.06172839506172839,83.88888888888889,0)" xlink:href="#X"/><use transform="matrix(0.06172839506172839,0,0,0.06172839506172839,90.06172839506172,0)" xlink:href="#T"/><use transform="matrix(0.06172839506172839,0,0,0.06172839506172839,94.93827160493827,0)" xlink:href="#H"/><use transform="matrix(0.06172839506172839,0,0,0.06172839506172839,107.28395061728395,0)" xlink:href="#Z"/></g><linearGradient gradientUnits="userSpaceOnUse" id="D" x1="120" y1="440" x2="120" y2="480"><stop offset="0%" stop-color="#fff"/><stop offset="20%" stop-color="#fff"/><stop offset="100%" stop-color="#dbdbdb"/></linearGradient><g id="E"><use transform="matrix(0.06172839506172839,0,0,0.06172839506172839,0,0)" xlink:href="#L"/><use transform="matrix(0.06172839506172839,0,0,0.06172839506172839,14.814814814814813,0)" xlink:href="#X"/><use transform="matrix(0.06172839506172839,0,0,0.06172839506172839,20.98765432098765,0)" xlink:href="#J"/><use transform="matrix(0.06172839506172839,0,0,0.06172839506172839,33.33333333333333,0)" xlink:href="#N"/><use transform="matrix(0.06172839506172839,0,0,0.06172839506172839,40.679012345679006,0)" xlink:href="#X"/></g><g id="F"><use transform="matrix(0.06172839506172839,0,0,0.06172839506172839,0,0)" xlink:href="#X"/><use transform="matrix(0.06172839506172839,0,0,0.06172839506172839,6.172839506172839,0)" xlink:href="#T"/><use transform="matrix(0.06172839506172839,0,0,0.06172839506172839,11.049382716049383,0)" xlink:href="#R"/><use transform="matrix(0.06172839506172839,0,0,0.06172839506172839,29.50617283950617,0)" xlink:href="#O"/><use transform="matrix(0.06172839506172839,0,0,0.06172839506172839,41.85185185185185,0)" xlink:href="#V"/><use transform="matrix(0.06172839506172839,0,0,0.06172839506172839,52.96296296296296,0)" xlink:href="#X"/><use transform="matrix(0.06172839506172839,0,0,0.06172839506172839,59.135802469135804,0)" xlink:href="#O"/><use transform="matrix(0.06172839506172839,0,0,0.06172839506172839,71.48148148148148,0)" xlink:href="#W"/></g></defs></g></svg>